<?xml version="1.0" encoding="UTF-8"?>
<svg xmlns="http://www.w3.org/2000/svg" xmlns:xlink="http://www.w3.org/1999/xlink" width="365pt" height="137.8pt" viewBox="0 0 365 137.8" version="1.1">
<defs>
<clipPath id="clip1">
  <path d="M 100 29 L 191 29 L 191 137.800781 L 100 137.800781 Z M 100 29 "/>
</clipPath>
<clipPath id="clip2">
  <path d="M 0 29 L 101 29 L 101 137.800781 L 0 137.800781 Z M 0 29 "/>
</clipPath>
<clipPath id="clip3">
  <path d="M 204 26 L 303 26 L 303 137.800781 L 204 137.800781 Z M 204 26 "/>
</clipPath>
</defs>
<g id="surface1">
<g clip-path="url(#clip1)" clip-rule="nonzero">
<path style=" stroke:none;fill-rule:nonzero;fill:rgb(0.799561%,0.799561%,0.799561%);fill-opacity:1;" d="M 100.863281 34.824219 L 100.863281 46.742188 C 100.863281 49.945313 103.457031 52.539063 106.660156 52.539063 L 132.984375 52.539063 L 132.984375 131.957031 C 132.984375 135.15625 135.578125 137.753906 138.78125 137.753906 L 153.035156 137.753906 C 156.238281 137.753906 158.835938 135.15625 158.835938 131.957031 L 158.835938 52.539063 L 185.15625 52.539063 C 188.359375 52.539063 190.957031 49.945313 190.957031 46.742188 L 190.957031 34.824219 C 190.957031 31.621094 188.363281 29.023438 185.15625 29.019531 L 106.695313 29.019531 C 103.492188 29.023438 100.898438 31.621094 100.898438 34.824219 "/>
</g>
<g clip-path="url(#clip2)" clip-rule="nonzero">
<path style=" stroke:none;fill-rule:nonzero;fill:rgb(0.799561%,0.799561%,0.799561%);fill-opacity:1;" d="M 73.253906 83.742188 C 73.253906 102.011719 60.855469 114.28125 42.40625 114.28125 L 25.824219 114.28125 L 25.824219 52.539063 L 42.40625 52.539063 C 51.445313 52.539063 59.183594 55.515625 64.761719 61.140625 C 70.34375 66.765625 73.253906 74.421875 73.253906 83.386719 Z M 42.40625 29.019531 L 5.40625 29.019531 C 2.421875 29.019531 0 31.4375 0 34.425781 L 0 132.394531 C 0 135.378906 2.421875 137.800781 5.40625 137.800781 L 42.40625 137.800781 C 76.578125 137.800781 100.1875 114.035156 100.1875 83.433594 L 100.1875 83.121094 C 100.1875 52.519531 76.578125 29.0625 42.40625 29.0625 "/>
</g>
<path style=" stroke:none;fill-rule:nonzero;fill:rgb(38.798523%,73.699951%,27.49939%);fill-opacity:1;" d="M 336 41.1875 C 329.277344 41.1875 323.832031 35.738281 323.832031 29.019531 L 306.945313 29.019531 C 306.945313 45.050781 319.941406 58.046875 335.972656 58.046875 C 352.003906 58.046875 365 45.050781 365 29.019531 L 348.160156 29.019531 C 348.164063 35.734375 342.726563 41.183594 336.007813 41.1875 L 336 41.1875 "/>
<path style=" stroke:none;fill-rule:nonzero;fill:rgb(9.799194%,55.699158%,80.799866%);fill-opacity:1;" d="M 336 0 C 319.972656 -0.0195313 306.964844 12.957031 306.945313 28.980469 L 306.945313 29.019531 L 323.804688 29.019531 C 323.988281 22.300781 329.582031 17.003906 336.300781 17.1875 C 342.761719 17.363281 347.957031 22.558594 348.132813 29.019531 L 365 29.019531 C 365 12.992188 352.007813 0 335.980469 0 L 335.972656 0 "/>
<g clip-path="url(#clip3)" clip-rule="nonzero">
<path style=" stroke:none;fill-rule:nonzero;fill:rgb(0.799561%,0.799561%,0.799561%);fill-opacity:1;" d="M 263.347656 26.351563 C 249.410156 26.351563 238.769531 32.058594 229.867188 44.308594 L 229.867188 34.855469 C 229.867188 31.632813 227.257813 29.019531 224.035156 29.019531 L 209.851563 29.019531 C 206.628906 29.019531 204.019531 31.632813 204.019531 34.855469 L 204.019531 131.957031 C 204.019531 135.15625 206.613281 137.753906 209.816406 137.753906 L 224.113281 137.753906 C 227.316406 137.753906 229.914063 135.15625 229.914063 131.957031 L 229.914063 76.433594 C 229.914063 60.332031 239.351563 49.925781 253.953125 49.925781 C 268.554688 49.925781 276.753906 59.429688 276.753906 76.023438 L 276.753906 131.972656 C 276.753906 135.175781 279.351563 137.773438 282.550781 137.773438 L 296.804688 137.773438 C 300.007813 137.773438 302.605469 135.175781 302.605469 131.972656 L 302.605469 68.386719 C 302.605469 42.453125 287.605469 26.351563 263.464844 26.351563 "/>
</g>
</g>
</svg>
